<svg width="256" height="256" viewBox="0 0 256 256" fill="none" xmlns="http://www.w3.org/2000/svg">
<rect width="256" height="256" rx="20" fill="#030712"/>
<path d="M30.9914 214.753C30.3305 214.753 30 214.34 30 213.514L30.2478 43.4959C30.2478 42.6698 30.6609 42.2567 31.487 42.2567H58.9973C59.8234 42.2567 60.2365 42.6698 60.2365 43.4959L59.9886 184.269H111.044C111.87 184.269 112.283 184.682 112.283 185.508V213.514C112.283 214.34 111.87 214.753 111.044 214.753H30.9914Z" fill="#FAFAFA"/>
<path d="M129.746 214.753C128.92 214.753 128.507 214.34 128.507 213.514L129.002 43.248C129.002 42.5871 129.333 42.2567 129.994 42.2567L176.34 42.0089C185.427 41.8436 193.689 43.9916 201.124 48.4527C208.724 52.9138 214.755 58.9446 219.216 66.545C223.677 73.9802 225.908 82.2415 225.908 91.329V162.459C225.908 172.042 223.595 180.799 218.968 188.73C214.342 196.496 208.146 202.692 200.38 207.318C192.615 211.944 183.858 214.34 174.109 214.505L129.746 214.753ZM158.743 184.269H174.109C180.223 184.269 185.345 182.121 189.475 177.825C193.771 173.529 195.919 168.407 195.919 162.459V91.0812C195.919 85.7939 193.936 81.2502 189.971 77.45C186.171 73.4845 181.627 71.5844 176.34 71.7496L158.991 71.9975L158.743 184.269Z" fill="#FAFAFA"/>
</svg>
